<mxfile host="app.diagrams.net" modified="2024-05-30T21:11:02.034Z" agent="Mozilla/5.0 (Windows NT 10.0; Win64; x64) AppleWebKit/537.36 (KHTML, like Gecko) Chrome/125.0.0.0 Safari/537.36" etag="gtXIrUKVpDcmQdLCI5JI" version="24.4.10" type="device">
  <diagram name="Page-1" id="8c4QiMLqoXCQGiH4fYEv">
    <mxGraphModel dx="1877" dy="557" grid="1" gridSize="10" guides="1" tooltips="1" connect="1" arrows="1" fold="1" page="1" pageScale="1" pageWidth="827" pageHeight="1169" math="0" shadow="0">
      <root>
        <mxCell id="0" />
        <mxCell id="1" parent="0" />
        <mxCell id="dKUIVIRxgYZiSyb5uB9P-47" style="edgeStyle=orthogonalEdgeStyle;rounded=0;orthogonalLoop=1;jettySize=auto;html=1;exitX=0.25;exitY=1;exitDx=0;exitDy=0;" edge="1" parent="1" source="dKUIVIRxgYZiSyb5uB9P-1" target="dKUIVIRxgYZiSyb5uB9P-12">
          <mxGeometry relative="1" as="geometry" />
        </mxCell>
        <mxCell id="dKUIVIRxgYZiSyb5uB9P-52" style="edgeStyle=orthogonalEdgeStyle;rounded=0;orthogonalLoop=1;jettySize=auto;html=1;exitX=0.75;exitY=1;exitDx=0;exitDy=0;entryX=0;entryY=0.5;entryDx=0;entryDy=0;" edge="1" parent="1" source="dKUIVIRxgYZiSyb5uB9P-1" target="dKUIVIRxgYZiSyb5uB9P-9">
          <mxGeometry relative="1" as="geometry" />
        </mxCell>
        <mxCell id="dKUIVIRxgYZiSyb5uB9P-1" value="Vozilo" style="swimlane;fontStyle=0;childLayout=stackLayout;horizontal=1;startSize=26;fillColor=#d5e8d4;horizontalStack=0;resizeParent=1;resizeParentMax=0;resizeLast=0;collapsible=1;marginBottom=0;whiteSpace=wrap;html=1;strokeColor=#82b366;" vertex="1" parent="1">
          <mxGeometry x="-90" y="190" width="140" height="66" as="geometry" />
        </mxCell>
        <mxCell id="dKUIVIRxgYZiSyb5uB9P-57" value="DodajVozilo()&lt;div&gt;UrediVozača()&lt;/div&gt;" style="text;html=1;align=center;verticalAlign=middle;resizable=0;points=[];autosize=1;strokeColor=none;fillColor=none;" vertex="1" parent="dKUIVIRxgYZiSyb5uB9P-1">
          <mxGeometry y="26" width="140" height="40" as="geometry" />
        </mxCell>
        <mxCell id="dKUIVIRxgYZiSyb5uB9P-5" value="Stanica" style="swimlane;fontStyle=0;childLayout=stackLayout;horizontal=1;startSize=26;fillColor=#d5e8d4;horizontalStack=0;resizeParent=1;resizeParentMax=0;resizeLast=0;collapsible=1;marginBottom=0;whiteSpace=wrap;html=1;strokeColor=#82b366;" vertex="1" parent="1">
          <mxGeometry x="50" y="400" width="140" height="66" as="geometry" />
        </mxCell>
        <mxCell id="dKUIVIRxgYZiSyb5uB9P-62" value="DodajStanicu()&lt;div&gt;UrediStanicu()&lt;/div&gt;" style="text;html=1;align=center;verticalAlign=middle;resizable=0;points=[];autosize=1;" vertex="1" parent="dKUIVIRxgYZiSyb5uB9P-5">
          <mxGeometry y="26" width="140" height="40" as="geometry" />
        </mxCell>
        <mxCell id="dKUIVIRxgYZiSyb5uB9P-6" value="Dispečer" style="swimlane;fontStyle=0;childLayout=stackLayout;horizontal=1;startSize=26;fillColor=#d5e8d4;horizontalStack=0;resizeParent=1;resizeParentMax=0;resizeLast=0;collapsible=1;marginBottom=0;whiteSpace=wrap;html=1;strokeColor=#82b366;" vertex="1" parent="1">
          <mxGeometry x="-10" y="50" width="140" height="66" as="geometry" />
        </mxCell>
        <mxCell id="dKUIVIRxgYZiSyb5uB9P-56" value="KreirajRaspored()&lt;div&gt;PregledajIncidente()&lt;/div&gt;" style="text;html=1;align=center;verticalAlign=middle;resizable=0;points=[];autosize=1;strokeColor=none;fillColor=none;" vertex="1" parent="dKUIVIRxgYZiSyb5uB9P-6">
          <mxGeometry y="26" width="140" height="40" as="geometry" />
        </mxCell>
        <mxCell id="dKUIVIRxgYZiSyb5uB9P-50" style="edgeStyle=orthogonalEdgeStyle;rounded=0;orthogonalLoop=1;jettySize=auto;html=1;exitX=0.5;exitY=1;exitDx=0;exitDy=0;entryX=0.5;entryY=0;entryDx=0;entryDy=0;" edge="1" parent="1" source="dKUIVIRxgYZiSyb5uB9P-7" target="dKUIVIRxgYZiSyb5uB9P-9">
          <mxGeometry relative="1" as="geometry" />
        </mxCell>
        <mxCell id="dKUIVIRxgYZiSyb5uB9P-7" value="Karta" style="swimlane;fontStyle=0;childLayout=stackLayout;horizontal=1;startSize=26;fillColor=#d5e8d4;horizontalStack=0;resizeParent=1;resizeParentMax=0;resizeLast=0;collapsible=1;marginBottom=0;whiteSpace=wrap;html=1;strokeColor=#82b366;" vertex="1" parent="1">
          <mxGeometry x="100" y="190" width="140" height="66" as="geometry" />
        </mxCell>
        <mxCell id="dKUIVIRxgYZiSyb5uB9P-59" value="KupiKartu()&lt;div&gt;PoništiKartu()&lt;/div&gt;" style="text;html=1;align=center;verticalAlign=middle;resizable=0;points=[];autosize=1;strokeColor=none;fillColor=none;" vertex="1" parent="dKUIVIRxgYZiSyb5uB9P-7">
          <mxGeometry y="26" width="140" height="40" as="geometry" />
        </mxCell>
        <mxCell id="dKUIVIRxgYZiSyb5uB9P-65" style="edgeStyle=orthogonalEdgeStyle;rounded=0;orthogonalLoop=1;jettySize=auto;html=1;exitX=0;exitY=0.25;exitDx=0;exitDy=0;entryX=0.5;entryY=0;entryDx=0;entryDy=0;" edge="1" parent="1" source="dKUIVIRxgYZiSyb5uB9P-8" target="dKUIVIRxgYZiSyb5uB9P-7">
          <mxGeometry relative="1" as="geometry" />
        </mxCell>
        <mxCell id="dKUIVIRxgYZiSyb5uB9P-8" value="Putnik" style="swimlane;fontStyle=0;childLayout=stackLayout;horizontal=1;startSize=26;fillColor=#d5e8d4;horizontalStack=0;resizeParent=1;resizeParentMax=0;resizeLast=0;collapsible=1;marginBottom=0;whiteSpace=wrap;html=1;strokeColor=#82b366;" vertex="1" parent="1">
          <mxGeometry x="310" y="140" width="140" height="66" as="geometry" />
        </mxCell>
        <mxCell id="dKUIVIRxgYZiSyb5uB9P-64" value="RegistrirajPutnika()&lt;div&gt;UrediPutnika()&lt;/div&gt;" style="text;html=1;align=center;verticalAlign=middle;resizable=0;points=[];autosize=1;strokeColor=none;fillColor=none;" vertex="1" parent="dKUIVIRxgYZiSyb5uB9P-8">
          <mxGeometry y="26" width="140" height="40" as="geometry" />
        </mxCell>
        <mxCell id="dKUIVIRxgYZiSyb5uB9P-48" style="edgeStyle=orthogonalEdgeStyle;rounded=0;orthogonalLoop=1;jettySize=auto;html=1;" edge="1" parent="1" source="dKUIVIRxgYZiSyb5uB9P-9" target="dKUIVIRxgYZiSyb5uB9P-5">
          <mxGeometry relative="1" as="geometry" />
        </mxCell>
        <mxCell id="dKUIVIRxgYZiSyb5uB9P-9" value="Ruta" style="swimlane;fontStyle=0;childLayout=stackLayout;horizontal=1;startSize=26;fillColor=#d5e8d4;horizontalStack=0;resizeParent=1;resizeParentMax=0;resizeLast=0;collapsible=1;marginBottom=0;whiteSpace=wrap;html=1;strokeColor=#82b366;" vertex="1" parent="1">
          <mxGeometry x="100" y="270" width="140" height="66" as="geometry" />
        </mxCell>
        <mxCell id="dKUIVIRxgYZiSyb5uB9P-61" value="DodajRutu()&lt;div&gt;UrediRutu()&lt;/div&gt;" style="text;html=1;align=center;verticalAlign=middle;resizable=0;points=[];autosize=1;strokeColor=none;fillColor=none;" vertex="1" parent="dKUIVIRxgYZiSyb5uB9P-9">
          <mxGeometry y="26" width="140" height="40" as="geometry" />
        </mxCell>
        <mxCell id="dKUIVIRxgYZiSyb5uB9P-26" style="edgeStyle=orthogonalEdgeStyle;rounded=0;orthogonalLoop=1;jettySize=auto;html=1;exitX=0.5;exitY=1;exitDx=0;exitDy=0;entryX=0.5;entryY=0;entryDx=0;entryDy=0;" edge="1" parent="1" source="dKUIVIRxgYZiSyb5uB9P-10" target="dKUIVIRxgYZiSyb5uB9P-1">
          <mxGeometry relative="1" as="geometry">
            <Array as="points">
              <mxPoint x="-130" y="150" />
              <mxPoint x="-20" y="150" />
            </Array>
          </mxGeometry>
        </mxCell>
        <mxCell id="dKUIVIRxgYZiSyb5uB9P-46" style="edgeStyle=orthogonalEdgeStyle;rounded=0;orthogonalLoop=1;jettySize=auto;html=1;entryX=0;entryY=0.5;entryDx=0;entryDy=0;" edge="1" parent="1" source="dKUIVIRxgYZiSyb5uB9P-10" target="dKUIVIRxgYZiSyb5uB9P-6">
          <mxGeometry relative="1" as="geometry" />
        </mxCell>
        <mxCell id="dKUIVIRxgYZiSyb5uB9P-10" value="Vozač" style="swimlane;fontStyle=0;childLayout=stackLayout;horizontal=1;startSize=26;fillColor=#d5e8d4;horizontalStack=0;resizeParent=1;resizeParentMax=0;resizeLast=0;collapsible=1;marginBottom=0;whiteSpace=wrap;html=1;strokeColor=#82b366;" vertex="1" parent="1">
          <mxGeometry x="-200" y="50" width="140" height="66" as="geometry" />
        </mxCell>
        <mxCell id="dKUIVIRxgYZiSyb5uB9P-55" value="DodajVozača()&lt;div&gt;UrediVozača()&lt;/div&gt;" style="text;html=1;align=center;verticalAlign=middle;resizable=0;points=[];autosize=1;fillColor=none;" vertex="1" parent="dKUIVIRxgYZiSyb5uB9P-10">
          <mxGeometry y="26" width="140" height="40" as="geometry" />
        </mxCell>
        <mxCell id="dKUIVIRxgYZiSyb5uB9P-12" value="Održavanje" style="swimlane;fontStyle=0;childLayout=stackLayout;horizontal=1;startSize=26;fillColor=#d5e8d4;horizontalStack=0;resizeParent=1;resizeParentMax=0;resizeLast=0;collapsible=1;marginBottom=0;whiteSpace=wrap;html=1;strokeColor=#82b366;" vertex="1" parent="1">
          <mxGeometry x="-220" y="322" width="140" height="66" as="geometry" />
        </mxCell>
        <mxCell id="dKUIVIRxgYZiSyb5uB9P-58" value="PlanirajServis()&lt;div&gt;EvidentirajPopravak()&lt;/div&gt;" style="text;html=1;align=center;verticalAlign=middle;resizable=0;points=[];autosize=1;strokeColor=none;fillColor=none;" vertex="1" parent="dKUIVIRxgYZiSyb5uB9P-12">
          <mxGeometry y="26" width="140" height="40" as="geometry" />
        </mxCell>
        <mxCell id="dKUIVIRxgYZiSyb5uB9P-51" style="edgeStyle=orthogonalEdgeStyle;rounded=0;orthogonalLoop=1;jettySize=auto;html=1;entryX=0.5;entryY=0;entryDx=0;entryDy=0;" edge="1" parent="1" source="dKUIVIRxgYZiSyb5uB9P-13" target="dKUIVIRxgYZiSyb5uB9P-8">
          <mxGeometry relative="1" as="geometry" />
        </mxCell>
        <mxCell id="dKUIVIRxgYZiSyb5uB9P-13" value="Kontroler" style="swimlane;fontStyle=0;childLayout=stackLayout;horizontal=1;startSize=26;fillColor=#d5e8d4;horizontalStack=0;resizeParent=1;resizeParentMax=0;resizeLast=0;collapsible=1;marginBottom=0;whiteSpace=wrap;html=1;strokeColor=#82b366;" vertex="1" parent="1">
          <mxGeometry x="310" y="50" width="140" height="66" as="geometry" />
        </mxCell>
        <mxCell id="dKUIVIRxgYZiSyb5uB9P-63" value="ProvjeriKarte()&lt;div&gt;EvidentirajPrekršaje()&lt;/div&gt;" style="text;html=1;align=center;verticalAlign=middle;resizable=0;points=[];autosize=1;strokeColor=none;fillColor=none;" vertex="1" parent="dKUIVIRxgYZiSyb5uB9P-13">
          <mxGeometry y="26" width="140" height="40" as="geometry" />
        </mxCell>
        <mxCell id="dKUIVIRxgYZiSyb5uB9P-66" value="" style="rounded=0;whiteSpace=wrap;html=1;" vertex="1" parent="1">
          <mxGeometry x="370" y="380" width="230" height="100" as="geometry" />
        </mxCell>
        <mxCell id="dKUIVIRxgYZiSyb5uB9P-68" value="Radi preglednosti na dijagramu nisu nacrtani atributi.Također, dijagram sadrži ključne metode za upravljanje elementima sustava" style="text;html=1;align=center;verticalAlign=middle;whiteSpace=wrap;rounded=0;" vertex="1" parent="1">
          <mxGeometry x="380" y="410" width="186" height="30" as="geometry" />
        </mxCell>
      </root>
    </mxGraphModel>
  </diagram>
</mxfile>
